<?xml version="1.0" encoding="UTF-8" standalone="no" ?>
<!DOCTYPE svg PUBLIC "-//W3C//DTD SVG 1.1//EN" "http://www.w3.org/Graphics/SVG/1.1/DTD/svg11.dtd">
<svg xmlns="http://www.w3.org/2000/svg" xmlns:xlink="http://www.w3.org/1999/xlink" version="1.1" width="200" height="200" viewBox="0 0 200 200" xml:space="preserve">
<desc>Created with Fabric.js 5.3.0</desc>
<defs>
</defs>
<g transform="matrix(0.9068702557 0 0 0.9068702394 100 100)" id="qRc4agFtqoN1zNGPqgGSG"  >
<path style="stroke: rgb(72,135,222); stroke-width: 0; stroke-dasharray: none; stroke-linecap: butt; stroke-dashoffset: 0; stroke-linejoin: miter; stroke-miterlimit: 4; fill: rgb(172,229,181); fill-rule: nonzero; opacity: 1;"  transform=" translate(0, 0)" d="M -110.26936 -108.06397 C -110.26936 -109.28197 -109.28197 -110.26935999999999 -108.06397000000001 -110.26935999999999 L 110.26935999999998 -110.26935999999999 L 110.26935999999998 108.06397 L 110.26935999999998 108.06397 C 110.26935999999998 109.28197 109.28196999999997 110.26935999999999 108.06396999999998 110.26935999999999 L -110.26936 110.26935999999999 z" stroke-linecap="round" />
</g>
<g transform="matrix(2.2060527736 0 0 2.2060527736 98.4523710766 100)" id="6FP_rN-6-8WHzDMde2L_O"  >
<g style=""   >
		<g transform="matrix(1 0 0 1 0 0)" id="bwSltbLv8ZkO-4_IezOt4"  >
<path style="stroke: none; stroke-width: 1; stroke-dasharray: none; stroke-linecap: butt; stroke-dashoffset: 0; stroke-linejoin: miter; stroke-miterlimit: 4; fill: rgb(179,181,179); fill-rule: nonzero; opacity: 1;"  transform=" translate(-40, -40)" d="M 40 0 C 17.9 0 0 17.9 0 40 C 0 62.1 17.9 80 40 80 C 62.1 80 80 62.1 80 40 C 80 17.9 62.1 0 40 0 z" stroke-linecap="round" />
</g>
		<g transform="matrix(1 0 0 1 0 3.75)" id="GZwQ-2qFwyxvuQG9HAIz8"  >
<path style="stroke: none; stroke-width: 1; stroke-dasharray: none; stroke-linecap: butt; stroke-dashoffset: 0; stroke-linejoin: miter; stroke-miterlimit: 4; fill: rgb(255,255,255); fill-rule: nonzero; opacity: 1;"  transform=" translate(-40, -43.75)" d="M 65.3 62.3 C 58.4 68.7 50.2 72.6 40 72.6 C 29.799999999999997 72.6 21.6 68.69999999999999 14.7 62.3 C 14.7 62.3 31 53.9 31 50.599999999999994 L 31 44.8 C 29.4 42.4 28.4 40.199999999999996 28.1 39.5 C 27.400000000000002 39 25.200000000000003 37.3 25 34.2 C 24.9 31.700000000000003 25.7 31.1 26.5 31.000000000000004 C 26.5 31.000000000000004 24.7 14.900000000000002 40 14.900000000000002 C 55.3 14.900000000000002 53.5 31 53.5 31 C 54.3 31.1 55.2 31.7 55 34.2 C 54.8 37.300000000000004 52.6 39.1 51.9 39.5 C 51.6 40.2 50.6 42.5 49 44.8 L 49 50.599999999999994 C 49 53.9 65.3 62.3 65.3 62.3 z" stroke-linecap="round" />
</g>
</g>
</g>
<g transform="matrix(0.6194553152 0 0 0.6194553152 98.4523710766 85.8144732822)" id="ox5DIUtzRVolDSrS2-Hd0"  >
<g style=""   >
		<g transform="matrix(1 0 0 1 0 0)" id="s66PObT0TsZARCBQ1FHi2"  >
<path style="stroke: none; stroke-width: 1; stroke-dasharray: none; stroke-linecap: butt; stroke-dashoffset: 0; stroke-linejoin: miter; stroke-miterlimit: 4; fill: rgb(179,181,179); fill-rule: nonzero; opacity: 1;"  transform=" translate(-40, -40)" d="M 40 17.6 C 17.4 17.6 1.7000000000000028 37.8 1 38.7 L 0 40 L 1 41.3 C 1.7 42.199999999999996 17.4 62.4 40 62.4 C 62.6 62.4 78.3 42.099999999999994 79 41.3 L 80 40 L 79 38.7 C 78.3 37.8 62.6 17.6 40 17.6 z" stroke-linecap="round" />
</g>
		<g transform="matrix(1 0 0 1 0 0)" id="khYceTnGKEb7gTvdsN4MC"  >
<path style="stroke: none; stroke-width: 1; stroke-dasharray: none; stroke-linecap: butt; stroke-dashoffset: 0; stroke-linejoin: miter; stroke-miterlimit: 4; fill: rgb(255,255,255); fill-rule: nonzero; opacity: 1;"  transform=" translate(-40, -40)" d="M 34.5 57.6 C 19.9 55.1 9 43.9 5.6 40 C 9 36.1 19.9 24.9 34.4 22.4 C 27 24.8 21.6 31.8 21.6 40 C 21.6 48.2 27 55.2 34.5 57.6 z M 74.4 40 C 71 43.9 60.1 55.1 45.6 57.6 C 53 55.2 58.4 48.2 58.4 40 C 58.4 31.799999999999997 53 24.8 45.5 22.4 C 60.1 24.9 71 36.1 74.4 40 z" stroke-linecap="round" />
</g>
		<g transform="matrix(1 0 0 1 0 0)" id="4v3KBQgW0y-audalfhmpM"  >
<path style="stroke: none; stroke-width: 1; stroke-dasharray: none; stroke-linecap: butt; stroke-dashoffset: 0; stroke-linejoin: miter; stroke-miterlimit: 4; fill: rgb(255,255,255); fill-rule: nonzero; opacity: 1;"  transform=" translate(-40, -40)" d="M 54 40 C 54 32.3 47.7 26 40 26 C 32.3 26 26 32.3 26 40 C 26 47.7 32.3 54 40 54 C 47.7 54 54 47.7 54 40 z" stroke-linecap="round" />
</g>
		<g transform="matrix(1 0 0 1 -0.05 -0.1)" id="R40GYRLUyIkgYl5nA2jwu"  >
<path style="stroke: none; stroke-width: 1; stroke-dasharray: none; stroke-linecap: butt; stroke-dashoffset: 0; stroke-linejoin: miter; stroke-miterlimit: 4; fill: rgb(179,181,179); fill-rule: nonzero; opacity: 1;"  transform=" translate(-39.95, -39.9)" d="M 49 39.9 C 49 44.9 44.9 49 39.9 49 C 34.9 49 30.9 45 30.9 40 C 30.9 39.2 31.099999999999998 38.4 31.299999999999997 37.6 C 31.799999999999997 38.9 33.199999999999996 39.800000000000004 34.699999999999996 39.800000000000004 C 36.8 39.800000000000004 38.49999999999999 38.1 38.49999999999999 36.00000000000001 C 38.49999999999999 34.10000000000001 37.099999999999994 32.50000000000001 35.199999999999996 32.20000000000001 C 36.599999999999994 31.40000000000001 38.199999999999996 30.80000000000001 39.9 30.80000000000001 C 44.9 30.8 49 34.9 49 39.9 z" stroke-linecap="round" />
</g>
</g>
</g>
<g transform="matrix(1.4758698092 0 0 1.4758698092 100 153.799382716)" id="6KpT3XcxlXG_nBoSt1iz8"  >
<g style=""   >
		<g transform="matrix(1 0 0 1 0 0)" id="V2eackPo9TupYNpeG_EwF"  >
<path style="stroke: none; stroke-width: 1; stroke-dasharray: none; stroke-linecap: butt; stroke-dashoffset: 0; stroke-linejoin: miter; stroke-miterlimit: 4; fill: rgb(179,181,179); fill-rule: nonzero; opacity: 1;"  transform=" translate(-40, -40.05)" d="M 0 70.7 L 80 70.7 L 80 9.4 L 0 9.4 L 0 70.7 z" stroke-linecap="round" />
</g>
		<g transform="matrix(1 0 0 1 0 -2.95)" id="AMfrI4oONp-Cq1qxYypbG"  >
<path style="stroke: none; stroke-width: 1; stroke-dasharray: none; stroke-linecap: butt; stroke-dashoffset: 0; stroke-linejoin: miter; stroke-miterlimit: 4; fill: rgb(255,255,255); fill-rule: nonzero; opacity: 1;"  transform=" translate(-40, -37.1)" d="M 48.4 55.8 L 62.8 42.199999999999996 L 62.9 42.199999999999996 L 62.9 42.199999999999996 L 72.3 50.099999999999994 L 72.3 17.099999999999994 L 7.7 17.099999999999994 L 7.7 57.099999999999994 L 28.5 35.8 L 48.4 55.8 z" stroke-linecap="round" />
</g>
		<g transform="matrix(1 0 0 1 22 -10.25)" id="BE5UIcd8vqzCXVVKJzqss"  >
<path style="stroke: none; stroke-width: 1; stroke-dasharray: none; stroke-linecap: butt; stroke-dashoffset: 0; stroke-linejoin: miter; stroke-miterlimit: 4; fill: rgb(179,181,179); fill-rule: nonzero; opacity: 1;"  transform=" translate(-62, -29.8)" d="M 54.6 29.8 C 54.6 25.700000000000003 57.9 22.4 62 22.4 C 66.1 22.4 69.4 25.7 69.4 29.799999999999997 C 69.4 33.89999999999999 66 37.2 62 37.2 C 57.9 37.2 54.6 33.9 54.6 29.8 z" stroke-linecap="round" />
</g>
</g>
</g>
<g transform="matrix(0.3961470373 0 0 0.3961470373 110.9968521593 162.2539281706)" id="U79cBEDlcQcrT1JVuy8NK"  >
<path style="stroke: none; stroke-width: 1; stroke-dasharray: none; stroke-linecap: butt; stroke-dashoffset: 0; stroke-linejoin: miter; stroke-miterlimit: 4; fill: rgb(179,181,179); fill-rule: nonzero; opacity: 1;"  transform=" translate(-39.9998891078, -40.000375)" d="M 40.826 0.326 L 79.199 36.161 C 80.002 36.911 79.471 38.256 78.373 38.256 L 73.129 38.256 C 72.46000000000001 38.256 71.918 38.798 71.918 39.467 L 71.918 78.78999999999999 C 71.918 79.45899999999999 71.376 80.00099999999999 70.70700000000001 80.00099999999999 L 55.755 80.00099999999999 C 55.086000000000006 80.00099999999999 54.544000000000004 79.45899999999999 54.544000000000004 78.78999999999999 L 54.544000000000004 49.552 C 54.544000000000004 46.261 51.876000000000005 43.593 48.58500000000001 43.593 L 31.414 43.593 C 28.123 43.593 25.455000000000002 46.261 25.455000000000002 49.55200000000001 L 25.455000000000002 78.789 C 25.455000000000002 79.458 24.913 80 24.244000000000003 80 L 9.293 80 C 8.623999999999999 80 8.081999999999999 79.458 8.081999999999999 78.789 L 8.081999999999999 39.467 C 8.081999999999999 38.798 7.539999999999999 38.256 6.870999999999999 38.256 L 1.627 38.256 C 0.528 38.256 -0.0020000000000000018 36.911 0.801 36.161 L 39.174 0.326 C 39.639 -0.109 40.361 -0.109 40.826 0.326 z" stroke-linecap="round" />
</g>
</svg>